<?xml version="1.0" encoding="UTF-8"?>
<svg version="1.1" xmlns="http://www.w3.org/2000/svg" width="512" height="512">
<path d="M0 0 C1.4077854 3.28483261 1.01799665 4.93926129 0 8.375 C-2.69766486 14.01446228 -7.60345791 17.82668255 -12.296875 21.78515625 C-18.49128496 27.19480264 -24.23318033 33.08449151 -30.03637695 38.90600586 C-32.05764268 40.9326298 -34.08419574 42.95385547 -36.11132812 44.97460938 C-42.28449032 51.14425494 -48.40116086 57.29587878 -54 64 C-54.93724909 65.08337672 -55.87602456 66.16543504 -56.81640625 67.24609375 C-68.72968056 81.06360062 -80.25354944 95.13485627 -91.24902344 109.69433594 C-93.12411027 112.16342686 -95.01742207 114.61774425 -96.9140625 117.0703125 C-104.58330726 127.01178969 -111.94744149 137.07689297 -118.9375 147.5078125 C-121.077033 150.6869876 -123.30085475 153.78533714 -125.578125 156.8671875 C-130.96809564 164.23680785 -135.99768624 171.84720913 -141.05273438 179.44873047 C-142.72965602 181.96941965 -144.41142502 184.48682107 -146.09375 187.00390625 C-164.94468617 215.26701647 -182.65217153 244.21918706 -199 274 C-200.03773169 275.88022419 -201.0754915 277.76043286 -202.11328125 279.640625 C-209.27538888 292.65634501 -216.22901753 305.77671581 -223 319 C-223.30119751 319.58801392 -223.60239502 320.17602783 -223.91271973 320.78186035 C-239.77568202 351.78237573 -253.70821322 383.43595194 -267.13964844 415.55371094 C-273.65912394 431.13981757 -280.24497329 446.6755095 -287.5 461.9375 C-287.99274414 462.98075439 -288.48548828 464.02400879 -288.99316406 465.09887695 C-292.89510062 473.18521576 -296.20219964 478.82187987 -305 482 C-322.76679468 486.9170096 -341.98721713 487.18815267 -360.25 485.1875 C-360.92836914 485.11748779 -361.60673828 485.04747559 -362.30566406 484.9753418 C-370.80663496 483.91324989 -375.34562419 481.38345712 -380.75488281 474.93896484 C-385.59398605 468.60434928 -389.96862023 461.95158953 -394.375 455.3125 C-396.33799307 452.36897962 -398.30474848 449.42799467 -400.2734375 446.48828125 C-400.99384468 445.41170006 -400.99384468 445.41170006 -401.72880554 444.31336975 C-412.48362346 428.29797502 -423.82913785 412.61346801 -436.43359375 398 C-438.76718522 395.27214878 -441.01438282 392.49560233 -443.25 389.6875 C-447.10625791 384.93814107 -451.23225802 380.49974455 -455.4375 376.0625 C-479 351.12449434 -479 351.12449434 -479 339 C-476.85302445 326.90089821 -467.57298219 318.81712368 -458 312 C-453.47515887 309.05781546 -448.78753362 306.48637444 -444 304 C-443.15824219 303.54238281 -442.31648438 303.08476562 -441.44921875 302.61328125 C-432.56893577 298.35970033 -421.33806209 298.48579757 -412.125 301.6875 C-410.40287777 302.4270146 -408.69345218 303.19700155 -407 304 C-406.20722656 304.33902344 -405.41445313 304.67804688 -404.59765625 305.02734375 C-372.65505345 319.57494729 -347.24162589 354.51674823 -332 385 C-331.64550781 384.23042969 -331.29101562 383.46085937 -330.92578125 382.66796875 C-326.38791451 372.87804317 -321.72056812 363.15268755 -317.02905273 353.43554688 C-314.46522433 348.12421498 -311.9043301 342.81204068 -309.3828125 337.48046875 C-297.41267967 312.1873421 -285.06651053 287.01616393 -271.42578125 262.578125 C-269.88568005 259.79328447 -268.37735339 256.99287733 -266.875 254.1875 C-259.23815704 239.92913691 -251.25166046 225.91103817 -243 212 C-242.47519043 211.11296387 -241.95038086 210.22592773 -241.40966797 209.31201172 C-234.1567207 197.06877893 -226.67886654 184.9804083 -219 173 C-218.24879883 171.8258252 -218.24879883 171.8258252 -217.48242188 170.62792969 C-204.51614911 150.40021298 -190.9825878 130.53827377 -177 111 C-176.48518066 110.27796387 -175.97036133 109.55592773 -175.43994141 108.81201172 C-167.51254875 97.70210674 -159.36429884 86.78442591 -151 76 C-150.51789063 75.37609375 -150.03578125 74.7521875 -149.5390625 74.109375 C-133.37281168 53.20936012 -116.09142018 32.12307652 -95 16 C-94.27554687 15.42378906 -93.55109375 14.84757812 -92.8046875 14.25390625 C-81.60970464 5.97127133 -66.35271053 4.84565429 -52.9375 2.875 C-51.19978165 2.61381453 -49.4620701 2.35258375 -47.72436523 2.09130859 C-5.06003817 -4.25043206 -5.06003817 -4.25043206 0 0 Z " fill="#08B285" transform="translate(495,14)"/>
</svg>
