<?xml version="1.0" encoding="UTF-8"?>
<svg version="1.1" xmlns="http://www.w3.org/2000/svg" width="512" height="512">
<path d="M0 0 C8.30570381 6.88560186 15.82664877 14.69007997 23.43603516 22.32250977 C24.75747535 23.64423261 26.07913692 24.96573414 27.40100098 26.28703308 C30.9603882 29.84613539 34.51670086 33.40829514 38.07243776 36.97104383 C41.79952822 40.70441893 45.52948288 44.4349303 49.25912476 48.16575623 C56.30858018 55.21830997 63.35548433 62.27340717 70.40145814 69.3294391 C78.4285693 77.36775813 86.45854686 85.40321115 94.48875737 93.43843377 C110.99567914 109.95578595 127.49902754 126.47670456 144 143 C148.02290649 141.39096433 150.7086169 138.5538094 153.69070435 135.52288818 C154.25468017 134.95779895 154.81865598 134.39270972 155.39972198 133.81049657 C157.28965329 131.91449006 159.17233239 130.01144187 161.05517578 128.10839844 C162.40852157 126.74794033 163.76233885 125.38795109 165.11659241 124.02839661 C168.03365546 121.09822606 170.94768013 118.16507813 173.85950089 115.22969818 C178.46851846 110.58409443 183.08622217 105.94719166 187.70553589 101.31182861 C200.84049301 88.12857377 213.9637569 74.93371585 227.078125 61.72998047 C234.32007135 54.43883861 241.56926456 47.15497937 248.82621562 39.87877107 C253.41461507 35.27732359 257.99387068 30.66702724 262.56647038 26.04988146 C265.42200232 23.17078893 268.28595927 20.30019187 271.15229607 17.43185997 C272.4739466 16.10593584 273.79217921 14.77659404 275.10659599 13.44349861 C286.38481978 2.01133523 298.13485574 -7.9436173 315.0625 -8.25 C327.27818463 -8.06963419 337.2724278 -4.18798876 346.2890625 4.10546875 C355.43268594 13.77990179 359.5454918 24.94861683 359.25 38.171875 C357.45945859 58.42737468 342.2007034 70.95365053 328.67749023 84.43603516 C327.35576739 85.75747535 326.03426586 87.07913692 324.71296692 88.40100098 C321.15386461 91.9603882 317.59170486 95.51670086 314.02895617 99.07243776 C310.29558107 102.79952822 306.5650697 106.52948288 302.83424377 110.25912476 C295.78169003 117.30858018 288.72659283 124.35548433 281.6705609 131.40145814 C273.63224187 139.4285693 265.59678885 147.45854686 257.56156623 155.48875737 C241.04421405 171.99567914 224.52329544 188.49902754 208 205 C209.60903567 209.02290649 212.4461906 211.7086169 215.47711182 214.69070435 C216.04220105 215.25468017 216.60729028 215.81865598 217.18950343 216.39972198 C219.08550994 218.28965329 220.98855813 220.17233239 222.89160156 222.05517578 C224.25205967 223.40852157 225.61204891 224.76233885 226.97160339 226.11659241 C229.90177394 229.03365546 232.83492187 231.94768013 235.77030182 234.85950089 C240.41590557 239.46851846 245.05280834 244.08622217 249.68817139 248.70553589 C262.87142623 261.84049301 276.06628415 274.9637569 289.27001953 288.078125 C296.56116139 295.32007135 303.84502063 302.56926456 311.12122893 309.82621562 C315.72267641 314.41461507 320.33297276 318.99387068 324.95011854 323.56647038 C327.82921107 326.42200232 330.69980813 329.28595927 333.56814003 332.15229607 C334.89406416 333.4739466 336.22340596 334.79217921 337.55650139 336.10659599 C348.98866477 347.38481978 358.9436173 359.13485574 359.25 376.0625 C359.06963419 388.27818463 355.18798876 398.2724278 346.89453125 407.2890625 C337.31878309 416.33941562 326.07958884 420.60615164 312.95703125 420.3125 C295.5902159 418.47716945 284.59022954 408.17845871 272.92138672 396.37548828 C271.53162685 394.98459849 270.14098237 393.59459213 268.74952698 392.20539856 C264.99536399 388.45237798 261.25361785 384.68719889 257.51405859 380.91963434 C253.59617516 376.97665837 249.66687679 373.0450907 245.73880005 369.11227417 C238.31142989 361.67249731 230.89431083 354.22258773 223.48086369 346.76893985 C215.03649504 338.27978177 206.58069544 329.80204881 198.12393928 321.3252337 C180.73658708 303.8961294 163.36356491 286.45279998 146 269 C141.97709351 270.60903567 139.2913831 273.4461906 136.30929565 276.47711182 C135.74531983 277.04220105 135.18134402 277.60729028 134.60027802 278.18950343 C132.71034671 280.08550994 130.82766761 281.98855813 128.94482422 283.89160156 C127.59147843 285.25205967 126.23766115 286.61204891 124.88340759 287.97160339 C121.96634454 290.90177394 119.05231987 293.83492187 116.14049911 296.77030182 C111.53148154 301.41590557 106.91377783 306.05280834 102.29446411 310.68817139 C89.15950699 323.87142623 76.0362431 337.06628415 62.921875 350.27001953 C55.67992865 357.56116139 48.43073544 364.84502063 41.17378438 372.12122893 C36.58538493 376.72267641 32.00612932 381.33297276 27.43352962 385.95011854 C24.57799768 388.82921107 21.71404073 391.69980813 18.84770393 394.56814003 C17.5260534 395.89406416 16.20782079 397.22340596 14.89340401 398.55650139 C3.43511979 410.17118289 -8.37329167 419.86782883 -25.5625 420.4375 C-38.62726006 419.83071869 -49.34658701 415.24003434 -58.375 405.6875 C-66.78526434 395.53658669 -70.15578924 384.07486574 -69 371 C-65.67031026 352.1664424 -51.60960761 340.45703828 -38.67749023 327.56396484 C-37.35576739 326.24252465 -36.03426586 324.92086308 -34.71296692 323.59899902 C-31.15386461 320.0396118 -27.59170486 316.48329914 -24.02895617 312.92756224 C-20.29558107 309.20047178 -16.5650697 305.47051712 -12.83424377 301.74087524 C-5.78169003 294.69141982 1.27340717 287.64451567 8.3294391 280.59854186 C16.36775813 272.5714307 24.40321115 264.54145314 32.43843377 256.51124263 C48.95578595 240.00432086 65.47670456 223.50097246 82 207 C80.39096433 202.97709351 77.5538094 200.2913831 74.52288818 197.30929565 C73.95779895 196.74531983 73.39270972 196.18134402 72.81049657 195.60027802 C70.91449006 193.71034671 69.01144187 191.82766761 67.10839844 189.94482422 C65.74794033 188.59147843 64.38795109 187.23766115 63.02839661 185.88340759 C60.09822606 182.96634454 57.16507813 180.05231987 54.22969818 177.14049911 C49.58409443 172.53148154 44.94719166 167.91377783 40.31182861 163.29446411 C27.12857377 150.15950699 13.93371585 137.0362431 0.72998047 123.921875 C-6.56116139 116.67992865 -13.84502063 109.43073544 -21.12122893 102.17378438 C-25.72267641 97.58538493 -30.33297276 93.00612932 -34.95011854 88.43352962 C-37.82921107 85.57799768 -40.69980813 82.71404073 -43.56814003 79.84770393 C-44.89406416 78.5260534 -46.22340596 77.20782079 -47.55650139 75.89340401 C-59.17118289 64.43511979 -68.86782883 52.62670833 -69.4375 35.4375 C-68.83071869 22.37273994 -64.24003434 11.65341299 -54.6875 2.625 C-38.67949135 -10.63800207 -17.24381694 -11.75870051 0 0 Z " fill="#000000" transform="translate(111,50)"/>
</svg>
