<?xml version="1.0" encoding="UTF-8"?>
<svg version="1.1" xmlns="http://www.w3.org/2000/svg" width="512" height="512">
<path d="M0 0 C11.84210371 10.17658942 22.06609527 21.34592852 30.375 34.625 C30.375 35.285 30.375 35.945 30.375 36.625 C31.035 36.625 31.695 36.625 32.375 36.625 C32.74818359 35.55958984 32.74818359 35.55958984 33.12890625 34.47265625 C44.38189797 8.75657173 74.72280593 -12.30138108 99.80566406 -22.34863281 C133.3194492 -35.1396632 168.63979953 -34.49183989 201.65869141 -20.40039062 C238.48956244 -3.81781018 264.43254612 27.04652243 278.78125 64.2734375 C284.96612739 81.96067832 287.61019751 99.36645791 287.625 118.0625 C287.62601212 119.20741409 287.62601212 119.20741409 287.62704468 120.37545776 C287.61150565 131.42312534 287.23086729 141.89246649 284.375 152.625 C284.20871094 153.28564453 284.04242188 153.94628906 283.87109375 154.62695312 C273.9948591 193.51005473 251.9555949 227.26936072 226.375 257.625 C225.9109375 258.17929687 225.446875 258.73359375 224.96875 259.3046875 C219.34414525 266.01320045 213.65862799 272.513786 207.37890625 278.625 C205.4844865 280.51572693 203.73611341 282.46427363 202 284.5 C195.77744995 291.73317303 188.91440518 298.43772018 181.65625 304.625 C179.18220075 306.79402948 176.785948 309.03355508 174.38793945 311.28588867 C168.81875067 316.51542919 163.17841592 321.54282978 157.2109375 326.3203125 C154.52408437 328.50384328 151.90152993 330.74388254 149.28686523 333.01245117 C142.81056747 338.63043375 136.17870901 343.97904975 129.33203125 349.140625 C127.07595374 350.85182151 124.83475536 352.5816136 122.59375 354.3125 C98.46783441 372.90440749 73.25183584 390.11982729 47.375 406.1875 C46.50302979 406.72963135 45.63105957 407.2717627 44.73266602 407.83032227 C38.98060408 411.36233084 34.3399248 413.66668589 27.375 412.625 C19.91536518 409.67381956 13.21185042 405.10717289 6.5625 400.6875 C5.56911621 400.03289795 4.57573242 399.3782959 3.55224609 398.70385742 C0.48952926 396.68300819 -2.56781946 394.65421163 -5.625 392.625 C-7.48026653 391.40073517 -9.33572799 390.17676567 -11.19140625 388.953125 C-27.72625963 378.02185022 -43.84906533 366.62424618 -59.625 354.625 C-60.18638672 354.20009277 -60.74777344 353.77518555 -61.32617188 353.33740234 C-78.47721767 340.35058105 -95.1053795 326.65191727 -110.9296875 312.07421875 C-113.03829598 310.15813539 -115.17011719 308.2885108 -117.3269043 306.42797852 C-121.39690077 302.86940474 -125.26456744 299.14664908 -129.08984375 295.328125 C-129.76745255 294.6538446 -130.44506134 293.97956421 -131.14320374 293.28485107 C-132.56544061 291.86763926 -133.98636019 290.44910433 -135.40600586 289.02929688 C-137.54846492 286.88902078 -139.6987999 284.75688019 -141.84960938 282.625 C-148.5413465 275.96001489 -155.02171176 269.31529472 -160.84863281 261.86889648 C-162.62230837 259.62840006 -164.49390652 257.53114936 -166.4375 255.4375 C-190.79236501 228.23721512 -210.80726305 193.80801637 -220.625 158.625 C-220.84945801 157.83319336 -221.07391602 157.04138672 -221.30517578 156.22558594 C-227.25711295 134.16276436 -227.27733555 106.74283477 -221.625 84.625 C-221.43164062 83.820625 -221.23828125 83.01625 -221.0390625 82.1875 C-215.07260117 57.73237453 -204.28034128 35.57560033 -187.625 16.625 C-186.89539063 15.77421875 -186.16578125 14.9234375 -185.4140625 14.046875 C-137.90329923 -40.29877 -55.22737217 -46.32622774 0 0 Z " fill="#000000" transform="translate(224.625,65.375)"/>
</svg>
