<?xml version="1.0" encoding="UTF-8"?>
<svg version="1.1" xmlns="http://www.w3.org/2000/svg" width="512" height="512">
<path d="M0 0 C1.65712006 -0.01073296 1.65712006 -0.01073296 3.34771729 -0.02168274 C4.56539795 -0.02437164 5.78307861 -0.02706055 7.03765869 -0.02983093 C8.95484711 -0.03968773 8.95484711 -0.03968773 10.9107666 -0.04974365 C15.15650169 -0.07079368 19.40223718 -0.08114784 23.64801025 -0.09111023 C25.10960153 -0.09515763 26.57119262 -0.09927454 28.03278351 -0.10346031 C34.90027003 -0.12251515 41.76774579 -0.13674477 48.63525367 -0.14507228 C56.5613707 -0.15484211 64.48720827 -0.18115347 72.41322684 -0.22157317 C78.53985192 -0.25174371 84.66639695 -0.26654209 90.79309487 -0.26985329 C94.45203051 -0.27220303 98.11066771 -0.28115274 101.76952362 -0.30631447 C105.85387218 -0.33394781 109.93759758 -0.32976124 114.02203369 -0.32279968 C115.23161743 -0.33560974 116.44120117 -0.3484198 117.68743896 -0.36161804 C124.00288709 -0.32232387 128.04113102 -0.20583419 132.78863525 4.14717102 C137.20315334 10.08393672 136.92988545 16.30918398 136.9644165 23.40107727 C136.98763146 25.24418744 137.01174945 27.08728641 137.03668213 28.93037415 C137.0716129 31.81106392 137.10104929 34.69134519 137.11456299 37.57221985 C137.20465864 53.66607611 138.426415 66.72708888 149.78863525 79.14717102 C158.37441195 86.69479824 168.7972004 91.21319002 180.22613525 91.45967102 C181.89482666 91.51574524 181.89482666 91.51574524 183.597229 91.57295227 C194.89572466 90.93306287 204.65235079 85.37539233 214.10113525 79.64717102 C235.65605345 66.80647366 235.65605345 66.80647366 243.78863525 68.14717102 C249.54492249 70.06593343 251.43366226 72.84833735 254.53082275 77.99873352 C254.87769638 78.57339859 255.22457001 79.14806366 255.58195496 79.74014282 C259.26996041 85.88145433 262.81942042 92.1025479 266.35113525 98.33467102 C267.75629003 100.80534699 269.16314798 103.27505208 270.56988525 105.74482727 C270.92281143 106.36492676 271.27573761 106.98502625 271.63935852 107.62391663 C275.18647607 113.85355233 278.76551104 120.06462711 282.35113525 126.27217102 C282.96110352 127.32863831 283.57107178 128.38510559 284.19952393 129.47358704 C286.71710059 133.83293658 289.23604765 138.19149208 291.75592041 142.54951477 C315.70337448 183.96832614 315.70337448 183.96832614 314.78863525 192.14717102 C310.50546755 203.1344273 297.1927005 207.82255721 287.40386963 213.11592102 C273.26666441 220.93529705 263.82627187 229.54341453 258.78863525 245.14717102 C255.58015734 258.57999854 258.97350364 271.03462736 265.83551025 282.73310852 C272.05916874 290.42555041 280.18394676 294.95968915 288.72613525 299.70967102 C311.89108414 312.71432251 311.89108414 312.71432251 314.78863525 320.14717102 C316.75719507 327.52551354 313.03298428 333.38002457 309.440979 339.63154602 C308.55801923 341.13743206 307.67381303 342.64258768 306.78863525 344.14717102 C305.74746016 345.94357651 304.70714619 347.74048127 303.6675415 349.53779602 C301.31051698 353.60058441 298.94029884 357.65535336 296.56207275 361.70576477 C292.794333 368.12693867 289.06760415 374.57121716 285.35113525 381.02217102 C284.42240601 382.63357971 284.42240601 382.63357971 283.47491455 384.27754211 C282.21553742 386.4629846 280.95634213 388.64853188 279.69732666 390.83418274 C277.76378081 394.19031183 275.82917356 397.5458265 273.894104 400.90107727 C273.2544873 402.01031555 272.61487061 403.11955383 271.95587158 404.2624054 C270.69006158 406.45585281 269.42299651 408.64857647 268.15460205 410.8405304 C265.26733201 415.8323284 262.39650488 420.83119046 259.57769775 425.86201477 C259.08237549 426.73865784 258.58705322 427.6153009 258.07672119 428.51850891 C257.16784806 430.12882231 256.26678702 431.74358334 255.37554932 433.36372375 C252.44008188 438.53957097 249.65055997 442.19319611 243.78863525 444.14717102 C233.38597466 445.3030222 226.16516221 440.21180919 217.58551025 434.99482727 C202.38960358 425.76747754 189.04487849 417.86744723 170.55426025 421.84248352 C159.03072552 425.32294198 148.82724177 432.41727768 142.722229 442.99482727 C138.74674578 450.60839108 137.49705969 457.26335649 137.44488525 465.77217102 C137.42295105 467.13076233 137.42295105 467.13076233 137.40057373 468.51679993 C137.35434651 471.39354615 137.31999028 474.27022665 137.28863525 477.14717102 C137.24730822 480.93908575 137.19360058 484.73053086 137.13238525 488.52217102 C137.12710815 489.38278137 137.12183105 490.24339172 137.11639404 491.13008118 C137.01152317 497.52311035 136.69539196 502.94706713 132.35113525 507.95967102 C128.48291075 511.26181389 126.48684409 512.39708778 121.45701599 512.41459656 C120.35089462 512.42312653 119.24477325 512.43165649 118.10513306 512.44044495 C116.89104767 512.43953857 115.67696228 512.4386322 114.42608643 512.43769836 C113.14781479 512.44441559 111.86954315 512.45113281 110.55253601 512.45805359 C107.04413912 512.47573387 103.53583977 512.48040988 100.02740264 512.48168516 C97.83479468 512.48310645 95.64221155 512.48737567 93.44960976 512.4926796 C85.79819794 512.51118826 78.14685583 512.51934938 70.49542236 512.51777649 C63.36705335 512.51657562 56.2389874 512.53766478 49.11069506 512.56926382 C42.98828401 512.59543508 36.86597185 512.6061434 30.7435053 512.60486567 C27.08795576 512.60435618 23.43267537 512.61003163 19.77718163 512.63122177 C15.69770052 512.65422327 11.61889576 512.64507815 7.53936768 512.63301086 C6.33135498 512.64424988 5.12334229 512.65548889 3.87872314 512.66706848 C-2.44390885 512.61948071 -6.4396483 512.47017858 -11.21136475 508.14717102 C-14.27701718 504.65866997 -15.33086605 501.67659414 -15.35321045 497.06562805 C-15.36376213 495.83756943 -15.36376213 495.83756943 -15.37452698 494.58470154 C-15.37869125 493.70039459 -15.38285553 492.81608765 -15.387146 491.90498352 C-15.41037276 490.01434774 -15.43449119 488.12372274 -15.45941162 486.23310852 C-15.49428246 483.26689232 -15.52373266 480.30106565 -15.53729248 477.33467102 C-15.63078066 460.21338924 -16.78090116 446.22818327 -29.090271 433.15107727 C-38.95543978 423.8837975 -50.07514603 421.02986866 -63.25823975 420.68623352 C-73.43592744 421.87295995 -82.06503076 426.37631132 -90.77386475 431.52217102 C-92.69135923 432.63496782 -94.6093268 433.74694982 -96.527771 434.85810852 C-97.46226074 435.3999176 -98.39675049 435.94172668 -99.35955811 436.49995422 C-100.3006543 437.04353577 -101.24175049 437.58711731 -102.21136475 438.14717102 C-103.19951172 438.71846741 -104.18765869 439.28976379 -105.20574951 439.87837219 C-106.16924316 440.42211487 -107.13273682 440.96585754 -108.12542725 441.52607727 C-108.98732666 442.01664612 -109.84922607 442.50721497 -110.73724365 443.01264954 C-115.90903948 445.38420423 -120.3011977 444.83194789 -125.52386475 442.95967102 C-130.07236868 439.89207535 -132.67218484 435.5902872 -135.355896 430.88545227 C-135.94241943 429.86258118 -136.52894287 428.83971008 -137.13323975 427.7858429 C-137.757146 426.68820618 -138.38105225 425.59056946 -139.02386475 424.45967102 C-139.68877887 423.29730385 -140.35415212 422.13519921 -141.0199585 420.9733429 C-142.40145604 418.56175642 -143.7809804 416.14905758 -145.15911865 413.73554993 C-148.3247503 408.19546147 -151.51960362 402.67223121 -154.71136475 397.14717102 C-155.96150116 394.98058306 -157.21150074 392.81391614 -158.46136475 390.64717102 C-159.08011475 389.57467102 -159.69886475 388.50217102 -160.33636475 387.39717102 C-162.21136475 384.14717102 -164.08636475 380.89717102 -165.96136475 377.64717102 C-166.58124268 376.57273743 -167.20112061 375.49830383 -167.83978271 374.39131165 C-169.07846477 372.24421966 -170.31707265 370.09708488 -171.55560303 367.9499054 C-174.49669824 362.85128293 -177.43857888 357.75311806 -180.38305664 352.65644836 C-181.78095075 350.23669437 -183.17842564 347.81669839 -184.5758667 345.39668274 C-185.56788799 343.6791605 -186.56051904 341.96199051 -187.55316162 340.24482727 C-188.44744873 338.69601868 -188.44744873 338.69601868 -189.35980225 337.11592102 C-189.88751221 336.20262024 -190.41522217 335.28931946 -190.95892334 334.3483429 C-193.81972423 329.32047138 -193.76414273 324.87817802 -193.21136475 319.14717102 C-188.82638637 309.04265564 -174.32345436 303.68621245 -165.18206787 298.6217804 C-152.18632246 291.21578126 -142.40903789 282.73931207 -138.0043335 268.24873352 C-135.0975932 256.87951284 -135.9703051 244.47245349 -141.871521 234.07295227 C-151.16124014 220.72067373 -164.87111528 214.04560233 -178.777771 206.3092804 C-185.00875156 202.75154054 -189.92192849 199.72604352 -193.21136475 193.14717102 C-194.51504315 184.02243911 -191.75561705 178.12528741 -187.08636475 170.45967102 C-186.45399902 169.37806702 -185.8216333 168.29646301 -185.17010498 167.18208313 C-183.85102461 164.93077201 -182.52173196 162.6854149 -181.18255615 160.44599915 C-179.32883574 157.34376108 -177.50405977 154.2269124 -175.6918335 151.10029602 C-173.39584414 147.13991923 -171.09004777 143.18561659 -168.77386475 139.23701477 C-165.07923025 132.93146445 -161.42312241 126.60406468 -157.77386475 120.27217102 C-157.157854 119.20434387 -156.54184326 118.13651672 -155.90716553 117.03633118 C-152.98610438 111.97067425 -150.0695004 106.9025363 -147.16407776 101.82789612 C-146.1488564 100.05532826 -145.13234135 98.28350871 -144.11541748 96.51191711 C-142.84409114 94.29628966 -141.57520354 92.07926028 -140.30926514 89.86054993 C-129.17089852 70.46701561 -129.17089852 70.46701561 -122.21136475 68.14717102 C-116.82010357 67.25985928 -112.92021489 68.01068664 -108.184021 70.72529602 C-107.2225415 71.27000549 -106.26106201 71.81471497 -105.27044678 72.37593079 C-104.26094971 72.96044006 -103.25145264 73.54494934 -102.21136475 74.14717102 C-99.09001517 75.93367091 -95.96836293 77.71963656 -92.84613037 79.5045929 C-90.70661338 80.72922785 -88.5712038 81.96106555 -86.43988037 83.1999054 C-73.37545753 90.62964186 -61.3452118 93.65187069 -46.46136475 89.58467102 C-33.79182613 85.19194778 -25.12974129 76.70580212 -19.2543335 64.83467102 C-16.55534841 57.87998287 -15.92071361 51.55257973 -15.902771 44.17060852 C-15.87762916 42.26435522 -15.8522309 40.35810529 -15.82659912 38.45185852 C-15.79781097 35.47855884 -15.77375879 32.50531718 -15.75506592 29.53193665 C-15.73338396 26.64037411 -15.69396817 23.74944932 -15.652771 20.85810852 C-15.65265518 19.97360016 -15.65253937 19.0890918 -15.65242004 18.17778015 C-15.57118675 13.09494952 -15.04027323 9.54431095 -12.21136475 5.14717102 C-7.99761172 1.34451585 -5.610786 0.02487878 0 0 Z M15.78863525 30.14717102 C15.45863525 39.05717102 15.12863525 47.96717102 14.78863525 57.14717102 C12.06548851 72.7528966 6.89335356 87.57549978 -4.91448975 98.76045227 C-6.43904839 100.07418619 -6.43904839 100.07418619 -6.21136475 102.14717102 C-6.78886475 102.41013977 -7.36636475 102.67310852 -7.96136475 102.94404602 C-10.32982419 104.21051392 -12.15789414 105.67038892 -14.21136475 107.39717102 C-30.44787605 120.15821994 -50.11527232 123.48819134 -70.21136475 122.14717102 C-81.23872268 120.82359876 -90.75389922 116.33264185 -100.42523193 111.10469055 C-102.99246555 109.72843437 -105.60035286 108.43796704 -108.21136475 107.14717102 C-109.54493768 106.48098378 -110.8783166 105.81440776 -112.21136475 105.14717102 C-116.57994885 111.48219891 -120.47752472 117.98432366 -124.21136475 124.70967102 C-128.84563527 132.98332951 -133.54708385 141.2122385 -138.33636475 149.39717102 C-138.91467041 150.38749329 -139.49297607 151.37781555 -140.08880615 152.39814758 C-142.8936092 157.19802199 -145.70913349 161.99122708 -148.53948975 166.77607727 C-149.5551704 168.50390914 -150.57079829 170.23177203 -151.58636475 171.95967102 C-152.05703369 172.748255 -152.52770264 173.53683899 -153.01263428 174.34931946 C-153.43657471 175.07280579 -153.86051514 175.79629211 -154.29730225 176.54170227 C-154.85490234 177.48299988 -154.85490234 177.48299988 -155.42376709 178.4433136 C-156.42115773 180.28818167 -156.42115773 180.28818167 -156.21136475 183.14717102 C-155.20718506 183.6808429 -154.20300537 184.21451477 -153.168396 184.76435852 C-130.63778642 196.95032543 -115.4229623 211.33014924 -107.496521 236.40888977 C-102.19371788 256.72985062 -106.07422326 277.90243637 -116.23480225 295.97529602 C-126.18705012 311.94609696 -140.18639717 320.22412163 -156.21136475 329.14717102 C-155.63069871 332.95277336 -154.54714741 335.67374802 -152.57855225 338.97138977 C-152.02739746 339.90418762 -151.47624268 340.83698547 -150.90838623 341.79804993 C-150.0064856 343.30117737 -150.0064856 343.30117737 -149.08636475 344.83467102 C-147.80305584 347.00219186 -146.52053032 349.17017667 -145.2387085 351.33857727 C-144.24073242 353.02104553 -144.24073242 353.02104553 -143.22259521 354.73750305 C-139.98668528 360.22338776 -136.82069227 365.74908004 -133.64886475 371.27217102 C-128.75381707 379.76390625 -123.84963368 388.25028038 -118.89886475 396.70967102 C-118.35351074 397.65020325 -117.80815674 398.59073547 -117.24627686 399.55976868 C-116.74362305 400.41490051 -116.24096924 401.27003235 -115.7230835 402.15107727 C-115.28439941 402.90203674 -114.84571533 403.65299622 -114.39373779 404.42671204 C-113.31148343 406.29871125 -113.31148343 406.29871125 -111.21136475 407.14717102 C-109.2153425 406.30881338 -109.2153425 406.30881338 -107.027771 404.97920227 C-105.76779297 404.25978455 -105.76779297 404.25978455 -104.48236084 403.52583313 C-103.14165527 402.75058289 -103.14165527 402.75058289 -101.77386475 401.95967102 C-94.76699082 398.01170794 -88.0152597 394.27788271 -80.21136475 392.14717102 C-79.49335693 391.92674133 -78.77534912 391.70631165 -78.0355835 391.47920227 C-63.64044812 387.77475465 -48.14259095 389.63908883 -34.21136475 394.14717102 C-32.83077881 394.58029602 -32.83077881 394.58029602 -31.42230225 395.02217102 C-23.58531781 397.80865438 -15.84093868 402.47939105 -9.98480225 408.39717102 C-8.38935015 410.38130024 -8.38935015 410.38130024 -6.21136475 410.14717102 C-5.93679443 410.74529602 -5.66222412 411.34342102 -5.3793335 411.95967102 C-4.26082453 414.05453732 -3.14878034 415.43767078 -1.52386475 417.14717102 C14.84037068 436.02591091 14.89147951 457.92396602 15.78863525 482.14717102 C45.48863525 482.14717102 75.18863525 482.14717102 105.78863525 482.14717102 C106.11863525 472.24717102 106.44863525 462.34717102 106.78863525 452.14717102 C110.47000409 432.89078017 119.86863461 416.00817913 135.78863525 404.14717102 C153.3785001 392.46418768 174.20472229 386.84064363 195.269104 390.90107727 C204.07884417 392.8867161 211.96738559 395.93583807 219.78082275 400.43623352 C220.50076416 400.84913635 221.22070557 401.26203918 221.96246338 401.68745422 C223.41323535 402.52596052 224.85749841 403.37584582 226.29449463 404.23774719 C228.08372905 405.28327152 229.93343762 406.22374119 231.78863525 407.14717102 C235.71251091 405.83921247 236.06212885 404.40977422 238.05426025 400.83857727 C238.6894458 399.71201721 239.32463135 398.58545715 239.97906494 397.42475891 C240.665638 396.18642379 241.35216012 394.94806043 242.03863525 393.70967102 C242.7527721 392.43752515 243.46795547 391.16596623 244.18414307 389.89497375 C245.66220116 387.27114234 247.13657916 384.64529243 248.60894775 382.01826477 C251.8665778 376.21858683 255.20401529 370.46535813 258.53863525 364.70967102 C264.99230821 353.54322489 271.4024513 342.35233291 277.78863525 331.14717102 C274.62963688 327.63025658 271.31447907 325.62445307 267.16363525 323.39717102 C260.82952508 319.89489711 255.22344085 315.95638748 249.78863525 311.14717102 C249.1544165 310.59545227 248.52019775 310.04373352 247.86676025 309.47529602 C235.06050454 297.57567788 227.22493423 278.47547266 226.58551025 261.11592102 C226.20239329 239.27581363 232.21985909 219.64742648 247.39801025 203.51435852 C254.53259148 196.44972417 262.45718154 191.36876998 271.16363525 186.47138977 C271.87648682 186.06791321 272.58933838 185.66443665 273.3237915 185.24873352 C273.96711426 184.89117981 274.61043701 184.5336261 275.27325439 184.16523743 C276.96191139 183.21148897 276.96191139 183.21148897 277.78863525 181.14717102 C276.51600381 178.52723048 275.17723512 176.04243108 273.72613525 173.52217102 C273.27713867 172.72875305 272.82814209 171.93533508 272.36553955 171.11787415 C267.49759892 162.55227379 262.51199124 154.05348316 257.53082275 145.55342102 C254.9144733 141.0841132 252.31659295 136.60474472 249.73394775 132.11592102 C249.39790024 131.53201599 249.06185272 130.94811096 248.71562195 130.34651184 C247.09183634 127.52407241 245.47003839 124.70050982 243.85040283 121.87568665 C240.60231774 116.22653387 237.28507723 110.64630093 233.78863525 105.14717102 C229.65902554 106.64674997 226.10590812 108.68944419 222.35113525 110.95967102 C215.46336739 114.99675984 208.4497125 117.84791697 200.78863525 120.14717102 C199.98554932 120.39338196 199.18246338 120.6395929 198.3550415 120.89326477 C179.23295184 125.69864259 157.73751113 121.40950233 141.03863525 111.51826477 C122.41721446 98.97790171 111.10529057 82.21007595 106.78863525 60.14717102 C106.45863525 50.24717102 106.12863525 40.34717102 105.78863525 30.14717102 C76.08863525 30.14717102 46.38863525 30.14717102 15.78863525 30.14717102 Z " fill="#000000" transform="translate(196.21136474609375,-0.1471710205078125)"/>
<path d="M0 0 C2.50087827 1.96607507 4.93131884 3.99438594 7.3515625 6.05859375 C8.10050781 6.661875 8.84945312 7.26515625 9.62109375 7.88671875 C28.60207017 23.70973938 40.64644658 48.76085613 43.3515625 73.05859375 C43.98581128 86.91127549 44.18312375 100.63983595 40.3515625 114.05859375 C40.08472656 115.04988281 39.81789063 116.04117188 39.54296875 117.0625 C35.43610416 130.77030138 28.46174427 143.08247113 19.3515625 154.05859375 C18.65417969 154.9196875 17.95679688 155.78078125 17.23828125 156.66796875 C1.62288829 175.05245333 -23.44628013 188.98129686 -47.6484375 191.05859375 C-82.45401047 193.02059443 -109.67149626 185.42934572 -135.984375 161.9765625 C-156.23967387 142.8228676 -166.18818515 116.335289 -167.8359375 88.94140625 C-168.46085109 60.117267 -157.47637661 33.48693423 -137.984375 12.46484375 C-102.14453791 -24.45378443 -41.83373846 -30.66573453 0 0 Z M-114.6484375 33.05859375 C-128.79340576 48.32085809 -137.47580833 67.15402484 -136.89453125 88.28515625 C-135.4008086 105.11917342 -130.51144729 119.89883332 -119.6484375 133.05859375 C-119.04386719 133.8371875 -118.43929687 134.61578125 -117.81640625 135.41796875 C-105.50799045 150.44719225 -86.40079251 158.81172523 -67.3984375 160.87109375 C-47.55935232 161.98511645 -28.43539099 155.84092805 -13.3984375 142.68359375 C-11.79664092 141.16111936 -10.21240121 139.61990668 -8.6484375 138.05859375 C-7.60042969 137.02798828 -7.60042969 137.02798828 -6.53125 135.9765625 C8.21146801 120.51678623 12.91290747 101.54739566 12.625 80.72265625 C12.08369254 64.60670063 5.08344599 49.00951471 -5.6484375 37.05859375 C-6.37675781 36.23746094 -7.10507812 35.41632813 -7.85546875 34.5703125 C-17.35370072 24.45830141 -28.55653403 18.36998365 -41.6484375 14.05859375 C-42.35355469 13.82398438 -43.05867188 13.589375 -43.78515625 13.34765625 C-68.78073864 6.1162299 -96.31988916 15.56696543 -114.6484375 33.05859375 Z " fill="#000000" transform="translate(318.6484375,169.94140625)"/>
</svg>
