<?xml version="1.0" encoding="UTF-8"?>
<svg version="1.1" xmlns="http://www.w3.org/2000/svg" width="512" height="512">
<path d="M0 0 C7.59274174 2.45163227 13.98953433 5.76212142 20 11 C20.58136719 11.45375 21.16273438 11.9075 21.76171875 12.375 C26.06133085 16.08522707 28.65325496 20.52768756 31.25 25.5 C31.57935547 26.10956543 31.90871094 26.71913086 32.24804688 27.34716797 C39.15893549 41.34207073 38.45892768 57.23576141 38.47998047 72.42016602 C38.49393293 74.7543207 38.50912978 77.08846821 38.52546692 79.42260742 C38.5656553 85.72203342 38.58742718 92.02139515 38.60490561 98.32092023 C38.62346273 104.26339935 38.65380159 110.20581174 38.68326129 116.14824509 C38.74447411 128.63328282 38.78768578 141.11833261 38.82466556 153.60346239 C38.85674196 164.28773765 38.90458434 174.97184817 38.96386719 185.65600586 C39.0329198 198.10195019 39.0919033 210.54787741 39.13524354 222.99393982 C39.15834474 229.56815634 39.18555146 236.14228452 39.22369003 242.71643257 C39.25890558 248.89794902 39.2790208 255.07933944 39.28780174 261.26094818 C39.29342782 263.52074281 39.30417907 265.78053181 39.32061577 268.04027367 C39.46861754 289.19456894 37.75774237 307.88126167 22.25 323.88671875 C5.78388459 339.35228895 -12.18681687 340.44948361 -33.75390625 340.38818359 C-36.15982297 340.39225333 -38.56573783 340.39759746 -40.97164917 340.40411377 C-46.80545373 340.41633272 -52.63912798 340.41460038 -58.47293639 340.40587585 C-63.21798001 340.39907589 -67.96299122 340.39819252 -72.70803833 340.4014473 C-73.38568664 340.401907 -74.06333495 340.40236669 -74.76151806 340.40284032 C-76.13853289 340.40379959 -77.5155477 340.40477223 -78.89256251 340.4057581 C-91.77769924 340.41429439 -104.66277174 340.4045056 -117.54789793 340.388357 C-128.58241983 340.37495541 -139.616847 340.377284 -150.65136719 340.39111328 C-163.493219 340.40720032 -176.33501464 340.41347058 -189.17687511 340.40427649 C-190.54857062 340.40332093 -191.92026614 340.40237782 -193.29196167 340.4014473 C-193.9667044 340.40098447 -194.64144713 340.40052164 -195.3366366 340.40004479 C-200.0710467 340.39746425 -204.8054209 340.4018056 -209.53982544 340.40888596 C-215.92244048 340.41757936 -222.30487741 340.41149019 -228.6874733 340.39420319 C-231.02387319 340.39025104 -233.36028818 340.39135046 -235.69668198 340.39799118 C-256.40290031 340.45139896 -273.04986112 338.4727224 -288.78515625 323.375 C-300.8411352 310.44724832 -305.37304161 295.09970786 -305.22273254 277.70477295 C-305.22247454 276.72998875 -305.22221653 275.75520455 -305.22195071 274.75088143 C-305.21858596 271.51708873 -305.20077681 268.28354696 -305.18286133 265.04980469 C-305.17734014 262.7178719 -305.17267329 260.38593695 -305.16879272 258.05400085 C-305.15548068 251.7418045 -305.12916116 245.42972615 -305.09965348 239.11758709 C-305.07308079 233.16781868 -305.05419426 227.21802828 -305.03451284 221.26823381 C-304.99260713 208.76115985 -304.93751483 196.2541697 -304.87832262 183.74716738 C-304.82471479 172.33490452 -304.78742843 160.92265728 -304.757924 149.51030883 C-304.72740386 137.76109398 -304.6859006 126.01196446 -304.63263911 114.26283002 C-304.60307134 107.67907165 -304.57776427 101.09536946 -304.56351662 94.51155853 C-304.5496149 88.31603892 -304.52133228 82.12074374 -304.48231125 75.92533302 C-304.47039311 73.66116477 -304.46340399 71.39696394 -304.46190834 69.13276482 C-304.43397801 38.83556487 -304.43397801 38.83556487 -297.4375 25.6875 C-297.09090332 25.02435791 -296.74430664 24.36121582 -296.38720703 23.67797852 C-289.60145882 11.3256318 -279.57119733 4.9094146 -266.64453125 0.12890625 C-261.99974843 -1.21539217 -256.80451531 -1.67781544 -252 -1 C-248.95977233 2.04022767 -249.70300495 5.60431687 -249.625 9.6875 C-248.9348171 28.08774137 -243.35051292 43.00490839 -230 56 C-217.27252435 67.63849377 -201.8443201 71.47028002 -184.94213867 71.40405273 C-183.69651657 71.41091599 -182.45089447 71.41777924 -181.16752625 71.42485046 C-177.78698371 71.43989754 -174.40699821 71.44164512 -171.02646422 71.43590808 C-168.1865273 71.4327909 -165.34663888 71.43893669 -162.50670892 71.44494683 C-155.79666691 71.45893672 -149.08675235 71.45747808 -142.37670898 71.44604492 C-135.49540675 71.43457774 -128.61449493 71.44862824 -121.73324412 71.4754414 C-115.78799104 71.49772475 -109.84285937 71.50420733 -103.89756757 71.49836498 C-100.36316238 71.49502313 -96.82900703 71.49722227 -93.29463768 71.51461601 C-70.58424327 71.61568777 -51.59685892 70.78142788 -34.28515625 54.34765625 C-21.27268417 40.9792875 -16.73055547 25.37060941 -16.46582031 7.00366211 C-16.32062716 1.56784474 -16.32062716 1.56784474 -14.83984375 -1.0546875 C-10.41165543 -3.32989254 -4.58609699 -1.10872675 0 0 Z M-206.4375 130.25 C-207.53481445 131.36761719 -207.53481445 131.36761719 -208.65429688 132.5078125 C-210.44326725 134.33186072 -212.22480646 136.16255817 -214 138 C-216.54107512 136.7997475 -218.41119503 135.66712783 -220.625 133.875 C-225.18500201 131.34166555 -228.88918452 131.18426724 -234 132 C-238.83858548 134.32968931 -241.67031069 137.16141452 -244 142 C-244.88828761 147.56539381 -244.73464911 151.63319967 -241.35986328 156.32666016 C-238.51868558 159.82278798 -235.36740846 163.00171913 -232.1875 166.1875 C-231.50107422 166.89841797 -230.81464844 167.60933594 -230.10742188 168.34179688 C-225.54382002 172.93130376 -221.47765227 176.56718651 -214.77734375 177.21484375 C-213.86662109 177.07755859 -213.86662109 177.07755859 -212.9375 176.9375 C-212.32777344 176.86402344 -211.71804687 176.79054688 -211.08984375 176.71484375 C-205.05913197 174.65200215 -200.58881209 169.9082134 -196.17578125 165.51171875 C-195.54770065 164.89029495 -194.91962006 164.26887115 -194.27250671 163.62861633 C-192.9530632 162.31924985 -191.63627477 161.00720296 -190.32202148 159.69262695 C-188.31847638 157.69346331 -186.29947114 155.71085615 -184.27929688 153.72851562 C-182.99381284 152.44889923 -181.70927516 151.16833129 -180.42578125 149.88671875 C-179.52573112 149.00822517 -179.52573112 149.00822517 -178.60749817 148.11198425 C-174.41749732 143.87602664 -171.26776512 139.69050188 -170.8203125 133.5234375 C-171.44974469 129.08513358 -171.99887643 125.50131083 -175 122 C-179.58414947 118.60772939 -182.93325524 117.553235 -188.59375 117.46875 C-196.2330469 119.15534802 -201.21118608 124.83720278 -206.4375 130.25 Z M-135.8671875 138.97265625 C-137.86369749 142.54572068 -138.31850946 145.94826337 -138 150 C-136.36925365 154.711045 -133.88550729 157.89159417 -130 161 C-124.36700974 162.73844956 -119.29907438 163.29398958 -113.43188477 163.2746582 C-112.61611969 163.27976913 -111.80035461 163.28488007 -110.95986938 163.29014587 C-108.28697186 163.30394533 -105.61433496 163.30309255 -102.94140625 163.30078125 C-101.06867885 163.30467321 -99.19595233 163.3090089 -97.32322693 163.31376648 C-93.40710584 163.32120775 -89.49107494 163.32095243 -85.57495117 163.31567383 C-80.5740091 163.30987911 -75.57343738 163.32682049 -70.5725565 163.3500185 C-66.70763517 163.36479904 -62.84280218 163.36562172 -58.97785759 163.36250877 C-57.13479821 163.36301972 -55.2917336 163.36821455 -53.44870186 163.37832069 C-50.86473091 163.39075333 -48.28147062 163.38385326 -45.69750977 163.37231445 C-44.94762283 163.37995819 -44.1977359 163.38760193 -43.42512512 163.39547729 C-37.57094585 163.33812778 -30.89632862 162.57358478 -26.3660059 158.54808521 C-22.32864336 153.78784486 -21.64396143 150.60730783 -21.72265625 144.5390625 C-22.13376444 140.77539598 -23.4828636 138.78209813 -26 136 C-32.25746382 131.07391146 -37.59894342 130.85004588 -45.33520508 130.83886719 C-46.57523537 130.83141983 -46.57523537 130.83141983 -47.84031677 130.82382202 C-50.56673017 130.80925444 -53.29308538 130.80240754 -56.01953125 130.796875 C-57.92136129 130.79111925 -59.82319133 130.78536157 -61.72502136 130.77960205 C-65.71031971 130.76910754 -69.69559799 130.76325469 -73.6809082 130.75976562 C-78.77505159 130.75428314 -83.86892741 130.73025374 -88.96298695 130.70179367 C-92.89133977 130.68312483 -96.81962865 130.67795944 -100.74802208 130.67642975 C-102.62540843 130.67341246 -104.50279391 130.66541528 -106.38013649 130.65224457 C-109.01249914 130.63509449 -111.64421471 130.63708598 -114.27661133 130.64355469 C-115.04415741 130.6343399 -115.81170349 130.62512512 -116.60250854 130.6156311 C-124.35143117 130.67495967 -130.98948827 132.66896299 -135.8671875 138.97265625 Z M-206.8984375 217.19140625 C-207.62546875 217.94808594 -208.3525 218.70476562 -209.1015625 219.484375 C-209.75463379 220.18272461 -210.40770508 220.88107422 -211.08056641 221.60058594 C-213 223 -213 223 -215.08349609 222.84472656 C-217.75456771 221.66741347 -219.75197258 219.84453532 -222 218 C-226.35250507 216.54916498 -230.58113755 216.14657071 -234.9375 217.68359375 C-239.2647159 219.93113477 -241.91775508 222.50235098 -244 227 C-245.07881004 233.72866054 -243.95488116 238.41747015 -240 244 C-237.85666296 246.53343945 -235.55566926 248.86492116 -233.1875 251.1875 C-232.30094727 252.09145508 -232.30094727 252.09145508 -231.39648438 253.01367188 C-227.16064451 257.22179633 -222.76958866 261.15863311 -216.77734375 262.49609375 C-208.00751963 262.21679999 -203.33861352 257.79069515 -197.484375 251.8828125 C-196.43881439 250.84155716 -196.43881439 250.84155716 -195.37213135 249.77926636 C-193.90618174 248.31535137 -192.44398629 246.84766845 -190.98535156 245.37646484 C-188.75390051 243.12892863 -186.50687222 240.89786872 -184.2578125 238.66796875 C-182.83237025 237.24054443 -181.40785869 235.81218998 -179.984375 234.3828125 C-179.31355896 233.71806915 -178.64274292 233.05332581 -177.95159912 232.36843872 C-173.63803835 227.98920731 -171.25888334 224.84771679 -170.6875 218.5625 C-171.16272822 213.14489835 -172.92926582 209.72154534 -177 206.1875 C-189.49153864 197.07908641 -198.7164851 208.40494534 -206.8984375 217.19140625 Z M-135.3125 223.1875 C-137.65652361 227.09420602 -138.3102705 230.45945612 -138 235 C-136.67392315 239.67833323 -134.74099455 242.41022883 -130.9375 245.4375 C-126.00546241 248.06092425 -121.86339271 248.15378237 -116.40112305 248.16113281 C-115.08356018 248.16858017 -115.08356018 248.16858017 -113.73937988 248.17617798 C-110.83015156 248.19079666 -107.92097778 248.19760127 -105.01171875 248.203125 C-102.99013772 248.20887688 -100.96855671 248.21463461 -98.94697571 248.22039795 C-94.7059402 248.23090723 -90.46492365 248.23675032 -86.22387695 248.24023438 C-80.79318537 248.24571767 -75.36274469 248.26974256 -69.93213177 248.29820633 C-65.75508394 248.31684319 -61.57809641 248.32203888 -57.40101051 248.32357025 C-55.39916424 248.32659514 -53.39731899 248.33461815 -51.39551353 248.34775543 C-48.59250254 248.36483701 -45.79010268 248.36293043 -42.98706055 248.35644531 C-42.16242813 248.3656601 -41.33779572 248.37487488 -40.48817444 248.3843689 C-34.10225002 248.33815766 -30.05149562 246.82355166 -25.1875 242.5 C-21.62645812 238.43023785 -21.65102251 234.69350349 -21.7265625 229.50390625 C-22.13997439 225.71823448 -23.42846733 223.76934288 -26 221 C-31.57972033 217.12475579 -35.62019534 216.41809561 -42.32836914 216.48242188 C-43.2365892 216.4754126 -44.14480927 216.46840332 -45.08055115 216.46118164 C-48.06573571 216.44365751 -51.049963 216.45520366 -54.03515625 216.46875 C-56.11828289 216.46605372 -58.2014083 216.46217016 -60.28453064 216.45715332 C-64.64301578 216.45126603 -69.00117229 216.45979749 -73.35961914 216.47851562 C-78.94056598 216.50131868 -84.5207439 216.48816833 -90.10166264 216.46422577 C-94.40056636 216.44975924 -98.6992883 216.45437751 -102.99819756 216.46473694 C-105.05585255 216.46740111 -107.11352416 216.46414537 -109.17115974 216.45481873 C-112.04822537 216.44463766 -114.92405185 216.46017563 -117.80102539 216.48242188 C-119.07062607 216.47027649 -119.07062607 216.47027649 -120.36587524 216.45788574 C-126.94139858 216.55187994 -130.50285291 218.63783384 -135.3125 223.1875 Z " fill="#000000" transform="translate(389,109)"/>
<path d="M0 0 C1.01894852 -0.00571014 2.03789703 -0.01142029 3.08772278 -0.01730347 C4.19482605 -0.01842133 5.30192932 -0.01953918 6.44258118 -0.02069092 C8.2044854 -0.02813828 8.2044854 -0.02813828 10.00198364 -0.03573608 C13.2171384 -0.04781988 16.43225685 -0.05529664 19.64743018 -0.05974674 C21.66016717 -0.06268533 23.67289855 -0.06679165 25.68563271 -0.07125092 C31.99462343 -0.08491572 38.30360125 -0.0945867 44.61260575 -0.09845281 C51.87357272 -0.10292776 59.13435091 -0.12045363 66.39526051 -0.1494534 C72.02180188 -0.1711384 77.64829041 -0.18116075 83.27487308 -0.18249393 C86.62871111 -0.18353733 89.9822308 -0.19081266 93.33605003 -0.20731354 C97.08394397 -0.22443552 100.83138236 -0.2224783 104.57929993 -0.21600342 C106.2247731 -0.22982559 106.2247731 -0.22982559 107.90348816 -0.243927 C117.21319001 -0.19373846 125.61494429 1.27632211 133.01020813 7.26153564 C138.39932191 12.81220744 141.91927288 19.46238452 141.99555969 27.23126221 C142.00516724 28.02598938 142.01477478 28.82071655 142.02467346 29.63952637 C142.03104828 30.91615143 142.03104828 30.91615143 142.03755188 32.21856689 C142.04325195 33.10397156 142.04895203 33.98937622 142.05482483 34.90161133 C142.06426079 36.77434093 142.07080323 38.64708703 142.07466125 40.51983643 C142.08434484 43.36632754 142.11537231 46.21208952 142.14692688 49.05841064 C142.15345982 50.88262513 142.15870915 52.70684476 142.16255188 54.53106689 C142.17489868 55.37405334 142.18724548 56.21703979 142.19996643 57.08557129 C142.16982089 65.19512669 139.87848253 71.65522749 134.83442688 78.14044189 C128.44076671 84.11712423 122.3343971 87.25256841 113.62379456 87.28088379 C112.04261337 87.28944901 112.04261337 87.28944901 110.42948914 87.29818726 C109.27824554 87.29930511 108.12700195 87.30042297 106.94087219 87.30157471 C105.11584671 87.30902206 105.11584671 87.30902206 103.25395203 87.31661987 C99.91903131 87.32871766 96.58417321 87.33618397 93.24923801 87.34063053 C91.16332035 87.34356581 89.07740814 87.34767151 86.99149323 87.3521347 C80.45825008 87.3658038 73.92501943 87.37547294 67.39176297 87.3793366 C59.86305653 87.383814 52.33453195 87.40134945 44.80588078 87.43033719 C38.97811873 87.45199298 33.15040769 87.46204297 27.32260585 87.46337771 C23.84589688 87.46442309 20.36935899 87.47027348 16.89269257 87.48819733 C13.01025601 87.50782413 9.12804456 87.50337351 5.24555969 87.49688721 C3.53083969 87.51070938 3.53083969 87.51070938 1.78147888 87.52481079 C-7.22282333 87.47774271 -13.89819118 85.79285007 -21.16557312 80.14044189 C-28.1423066 72.99759571 -30.79207516 65.31765323 -30.69682312 55.42559814 C-30.70065002 54.52981552 -30.70447693 53.6340329 -30.7084198 52.71110535 C-30.71112379 50.82954779 -30.70386945 48.94795167 -30.6870575 47.06646729 C-30.66565087 44.21330486 -30.68689737 41.36266725 -30.71244812 38.50958252 C-30.73037068 26.89392269 -30.32494997 16.63021011 -22.00541687 7.67559814 C-15.59894104 2.33006736 -8.23607756 0.02777498 0 0 Z " fill="#000000" transform="translate(200.1655731201172,62.85955810546875)"/>
</svg>
