<?xml version="1.0" encoding="UTF-8"?>
<svg version="1.1" xmlns="http://www.w3.org/2000/svg" width="512" height="512">
<path d="M0 0 C1.20414268 -0.00424107 1.20414268 -0.00424107 2.43261147 -0.00856781 C6.69197534 -0.02350368 10.95130592 -0.03276505 15.21069336 -0.03710938 C18.68508537 -0.04147145 22.15922591 -0.05528223 25.63354492 -0.078125 C86.98518022 -0.47344161 138.54493557 15.57624742 183.26953125 59.203125 C216.17140753 92.42599519 234.21201856 138.41558098 237.01953125 184.640625 C237.10497192 185.90205322 237.10497192 185.90205322 237.19213867 187.18896484 C237.45326174 192.33242243 237.11349642 196.37045118 235.26953125 201.203125 C230.30595202 206.16670423 226.18450678 206.32790237 219.39097786 206.33175945 C218.69592685 206.33351249 218.00087584 206.33526553 217.28476268 206.33707169 C214.94438951 206.34174164 212.60407819 206.33926363 210.26370239 206.33683777 C208.57335766 206.33870524 206.88301336 206.34100568 205.19266975 206.34370309 C200.53864065 206.34983539 195.88462948 206.34968582 191.23059726 206.34850872 C186.21482486 206.34830507 181.19905828 206.35381999 176.18328857 206.35856628 C166.3532327 206.36688114 156.52318281 206.3696215 146.69312371 206.37017866 C138.70509181 206.37065341 130.71706189 206.3727061 122.72903061 206.37587929 C100.09466953 206.38468801 77.4603132 206.3892983 54.8259504 206.38854881 C53.60512017 206.38850886 52.38428993 206.3884689 51.12646484 206.38842773 C49.90414866 206.38838685 48.68183247 206.38834597 47.4224764 206.38830385 C27.60687234 206.38789728 7.79128727 206.39746904 -12.02431129 206.4115661 C-32.35791139 206.42591785 -52.69150221 206.43283695 -73.0251075 206.43197232 C-84.44608685 206.43163995 -95.86704629 206.43440486 -107.28802109 206.44515038 C-117.01106546 206.45423956 -126.7340809 206.45644366 -136.45712768 206.44964095 C-141.41982205 206.44636778 -146.38246085 206.44634772 -151.34514999 206.4549942 C-155.88627632 206.46282498 -160.42730269 206.46146298 -164.96842648 206.45271007 C-166.61308694 206.45116751 -168.25775474 206.45301952 -169.90240656 206.45857015 C-172.13513705 206.46560768 -174.36751471 206.46035449 -176.60023308 206.45201397 C-177.84126915 206.45223134 -179.08230522 206.45244871 -180.36094844 206.45267266 C-184.86278617 206.11926524 -188.38362543 205.18595661 -192.04296875 202.515625 C-198.36924404 193.84628479 -194.02810441 175.38792993 -192.53320312 165.36425781 C-185.30662199 120.60839974 -163.33808416 76.27777295 -127.73046875 47.203125 C-127.21919434 46.77418945 -126.70791992 46.34525391 -126.18115234 45.90332031 C-112.1689888 34.15426238 -97.2838462 24.93602714 -80.73046875 17.203125 C-79.60382813 16.66945313 -78.4771875 16.13578125 -77.31640625 15.5859375 C-52.91037162 4.55463848 -26.61953486 0.06383863 0 0 Z M-110.73046875 61.203125 C-111.54773438 61.91082031 -112.365 62.61851562 -113.20703125 63.34765625 C-115.75107555 65.59633937 -118.24724938 67.88753269 -120.73046875 70.203125 C-121.52066406 70.92757812 -122.31085938 71.65203125 -123.125 72.3984375 C-147.4999125 95.63139125 -162.97823829 127.46869675 -170.10546875 160.078125 C-170.3389502 161.12685791 -170.3389502 161.12685791 -170.57714844 162.19677734 C-172.06125857 169.58166862 -172.21757067 176.50965379 -172.73046875 184.203125 C-44.69046875 184.203125 83.34953125 184.203125 215.26953125 184.203125 C214.42064297 170.99741089 214.42064297 170.99741089 212.20703125 158.140625 C211.98934082 157.16947754 211.77165039 156.19833008 211.54736328 155.19775391 C205.91832572 131.28690045 195.59654176 108.47254714 180.26953125 89.203125 C179.62830322 88.39270752 179.62830322 88.39270752 178.97412109 87.56591797 C153.99261871 56.3274702 120.28246433 34.51419142 81.20703125 25.390625 C79.97025635 25.09828979 79.97025635 25.09828979 78.70849609 24.80004883 C61.19796303 20.97604503 43.58488183 20.85469707 25.74072266 20.88745117 C23.02050178 20.89206968 20.30072942 20.88519454 17.58056641 20.86694336 C-29.23513103 20.55602564 -74.44504582 29.68558187 -110.73046875 61.203125 Z " fill="#000000" transform="translate(234.73046875,265.796875)"/>
<path d="M0 0 C0.69448242 0.23605957 1.38896484 0.47211914 2.10449219 0.71533203 C27.96823366 9.74609813 49.19736163 28.62345104 61.28515625 53.2265625 C73.23269294 78.86522332 74.39053113 108.12854779 64.875 134.6875 C58.35589815 151.8487176 47.65501122 167.72912053 33 179 C31.93458984 179.83724609 31.93458984 179.83724609 30.84765625 180.69140625 C7.7879911 197.84227201 -20.20799424 203.93916804 -48.546875 200.53515625 C-67.88164957 197.60719907 -85.25213347 188.61049456 -100 176 C-100.5878125 175.5565625 -101.175625 175.113125 -101.78125 174.65625 C-119.07107287 161.28110401 -130.6887256 137.28676398 -134 116 C-134.20625 114.700625 -134.4125 113.40125 -134.625 112.0625 C-137.33994796 83.15333196 -130.39849886 55.46077394 -111.99536133 32.71777344 C-96.4467385 13.98293533 -73.12684843 -0.98476744 -48.48095703 -3.80078125 C-32.21625195 -5.1068233 -15.54400992 -5.44861747 0 0 Z M-92.65234375 43.203125 C-99.57524461 51.45070739 -105.24806691 60.90288594 -109 71 C-109.391875 72.04671875 -109.78375 73.0934375 -110.1875 74.171875 C-116.75594072 94.69825224 -114.10139526 117.21905121 -104.34130859 136.19750977 C-93.3377394 156.39402907 -76.05768207 170.34488221 -54 177 C-31.21591262 182.85300449 -9.2494766 179.52863072 11.18359375 167.83984375 C29.38612782 155.94886796 42.84392422 137.77308062 47.96826172 116.49291992 C52.63561411 93.22059321 47.53948787 71.56497028 34.984375 51.83203125 C23.75874054 35.81119467 7.08257478 23.87360723 -12 19 C-12.77859375 18.79632813 -13.5571875 18.59265625 -14.359375 18.3828125 C-43.07127636 12.0313919 -72.54451401 22.14712118 -92.65234375 43.203125 Z " fill="#000000" transform="translate(288,45)"/>
</svg>
